<svg width="26" height="26" viewBox="0 0 24 24" fill="#fff"><path d="M12 2a10 10 0 0 0-8.6 15.1L2 22l5-1.3A10 10 0 1 0 12 2Zm0 18.2c-1.6 0-3.1-.4-4.4-1.2l-.3-.2-3 .8.8-2.9-.2-.3A8.2 8.2 0 1 1 12 20.2Zm4.6-6.1c-.3-.1-1.5-.7-1.7-.8-.2-.1-.4-.1-.6.1-.2.3-.7.8-.8 1-.1.2-.3.2-.5.1a6.7 6.7 0 0 1-3.3-2.9c-.3-.4 0-.6.1-.8l.4-.5c.1-.2.1-.3 0-.5l-.8-1.8c-.2-.5-.4-.4-.6-.4h-.5c-.2 0-.5.1-.7.3-.9.9-1.1 2.2-.2 3.7a12 12 0 0 0 4.6 4.3c1.8.8 2.6.9 3.5.7.6-.1 1.5-.6 1.7-1.2.2-.6.2-1.1.1-1.2 0 0-.2-.1-.7-.1Z"></path></svg>